<svg width="1674" height="1402" xmlns="http://www.w3.org/2000/svg" xmlns:xlink="http://www.w3.org/1999/xlink" xml:space="preserve" overflow="hidden"><g transform="translate(-382 -2532)"><path d="M922.167 3185 922.167 3245.09 903.834 3245.09 903.833 3185ZM940.5 3245.09C940.5 3260.28 928.188 3272.59 913.001 3272.59 897.813 3272.59 885.5 3260.28 885.5 3245.09 885.5 3229.9 897.812 3217.59 913 3217.59 928.188 3217.59 940.5 3229.9 940.5 3245.09Z" fill="#EBE600"/><path d="M1220.17 3140.98 1220.33 3241.19 1202 3241.22 1201.83 3141.01ZM1238.66 3241.16C1238.69 3256.35 1226.4 3268.68 1211.21 3268.71 1196.02 3268.73 1183.69 3256.44 1183.66 3241.25 1183.64 3226.07 1195.93 3213.73 1211.12 3213.71 1226.31 3213.68 1238.64 3225.98 1238.66 3241.16Z" fill="#EBE600"/><path d="M822.166 3078.88 824.239 3243.88 805.907 3244.11 803.834 3079.12ZM842.571 3243.65C842.762 3258.84 830.605 3271.31 815.419 3271.5 800.232 3271.69 787.766 3259.53 787.575 3244.35 787.385 3229.16 799.541 3216.69 814.728 3216.5 829.914 3216.31 842.38 3228.47 842.571 3243.65Z" fill="#EBE600"/><path d="M758.167 3010 758.167 3242.99 739.834 3242.99 739.833 3010ZM776.5 3242.99C776.5 3258.18 764.188 3270.49 749 3270.49 733.813 3270.49 721.5 3258.18 721.5 3242.99 721.5 3227.8 733.813 3215.49 749 3215.49 764.188 3215.49 776.5 3227.8 776.5 3242.99Z" fill="#EBE600"/><path d="M1349.17 3013 1349.17 3240.56 1330.83 3240.56 1330.83 3013ZM1367.5 3240.56C1367.5 3255.75 1355.19 3268.06 1340 3268.06 1324.81 3268.06 1312.5 3255.75 1312.5 3240.56 1312.5 3225.38 1324.81 3213.06 1340 3213.06 1355.19 3213.06 1367.5 3225.38 1367.5 3240.56Z" fill="#EBE600"/><path d="M1040.39 2542.33 1390.41 2892.34 1040.39 3242.36 690.373 2892.34Z" stroke="#275317" stroke-width="13.75" stroke-miterlimit="8" fill="#3B7D23" fill-rule="evenodd"/><path d="M1040.39 2600.66 1332.07 2892.34 1040.39 3184.03 748.709 2892.34Z" stroke="#262626" stroke-width="13.75" stroke-miterlimit="8" fill="#404040" fill-rule="evenodd"/><path d="M1269.64 2947.46 1342.03 3019.85" stroke="#EBE600" stroke-width="18.3333" stroke-miterlimit="8" fill="none" fill-rule="evenodd"/><path d="M0 0 66 66" stroke="#EBE600" stroke-width="18.3333" stroke-miterlimit="8" fill="none" fill-rule="evenodd" transform="matrix(-1 0 0 1 813 2951)"/><path d="M1140.67 3075.43 1213.06 3147.83" stroke="#EBE600" stroke-width="18.3333" stroke-miterlimit="8" fill="none" fill-rule="evenodd"/><path d="M0 0 66 66" stroke="#EBE600" stroke-width="18.3333" stroke-miterlimit="8" fill="none" fill-rule="evenodd" transform="matrix(-1 0 0 1 877 3019)"/><path d="M0 0 66 66" stroke="#EBE600" stroke-width="18.3333" stroke-miterlimit="8" fill="none" fill-rule="evenodd" transform="matrix(-1 0 0 1 978 3125)"/><path d="M1378.5 3266.5 2038.5 3266.5 1378.5 3464.5Z" stroke="#239DD3" stroke-width="4.58333" stroke-miterlimit="8" fill="#239DD3" fill-rule="evenodd"/><rect x="883.5" y="3601.5" width="330" height="165" stroke="#239DD3" stroke-width="4.58333" stroke-miterlimit="8" fill="#239DD3"/><path d="M0 165 201.288 0 528.712 0 730 165Z" stroke="#239DD3" stroke-width="4.58333" stroke-miterlimit="8" fill="#239DD3" fill-rule="evenodd" transform="matrix(1 0 0 -1 683.5 3601.5)"/><path d="M0 198 211.642 0 448.358 0 660 198Z" stroke="#239DD3" stroke-width="4.58333" stroke-miterlimit="8" fill="#239DD3" fill-rule="evenodd" transform="matrix(1 0 0 -1 388.5 3464.5)"/><rect x="718.5" y="3250.5" width="660" height="214" stroke="#239DD3" stroke-width="4.58333" stroke-miterlimit="8" fill="#239DD3"/><path d="M718.5 3931.5 881.117 3766.5 1215.88 3766.5 1378.5 3931.5Z" stroke="#239DD3" stroke-width="4.58333" stroke-miterlimit="8" fill="#239DD3" fill-rule="evenodd"/></g></svg>