<svg width="725" height="720" xmlns="http://www.w3.org/2000/svg" xmlns:xlink="http://www.w3.org/1999/xlink" xml:space="preserve" overflow="hidden"><defs><clipPath id="clip0"><rect x="3708" y="2693" width="725" height="720"/></clipPath></defs><g clip-path="url(#clip0)" transform="translate(-3708 -2693)"><path d="M4067.92 2703.14 4417.93 3053.16 4067.92 3403.18 3717.9 3053.16Z" stroke="#275317" stroke-width="13.75" stroke-miterlimit="8" fill="#3B7D23" fill-rule="evenodd"/><path d="M4.14101e-05-9.16667 79.8883-9.16631 79.8882 9.16703-4.14101e-05 9.16667ZM79.8883-27.4996C95.0762-27.4996 107.388-15.1873 107.388 0.000485123 107.388 15.1883 95.0759 27.5004 79.8881 27.5004 64.7003 27.5003 52.3882 15.1881 52.3882 0.000236662 52.3883-15.1876 64.7005-27.4997 79.8883-27.4996Z" fill="#EBE600" transform="matrix(-0.707107 -0.707107 -0.707107 0.707107 3922.07 2907.32)"/><path d="M2.67328e-05-9.16667 123.75-9.16631 123.75 9.16703-2.67328e-05 9.16667ZM123.75-27.4996C138.938-27.4996 151.25-15.1874 151.25 0.000441091 151.25 15.1883 138.938 27.5004 123.75 27.5004 108.562 27.5003 96.25 15.1881 96.25 0.000280694 96.25-15.1876 108.562-27.4997 123.75-27.4996Z" fill="#EBE600" transform="matrix(-0.707107 -0.707107 -0.707107 0.707107 3856.74 2972.66)"/><path d="M9.16667-2.00636e-05 9.16703 164.885-9.16631 164.885-9.16667 2.00636e-05ZM27.5004 164.885C27.5004 180.073 15.1883 192.385 0.000421083 192.385-15.1874 192.385-27.4996 180.073-27.4996 164.885-27.4997 149.697-15.1875 137.385 0.000300702 137.385 15.1881 137.385 27.5003 149.697 27.5004 164.885Z" fill="#EBE600" transform="matrix(0.707107 0.707107 0.707107 -0.707107 4287.91 2979.4)"/><path d="M9.16667-3.42023e-05 9.16703 96.7238-9.16631 96.7239-9.16667 3.42023e-05ZM27.5004 96.7237C27.5004 111.912 15.1883 124.224 0.000463499 124.224-15.1874 124.224-27.4996 111.912-27.4996 96.724-27.4997 81.5361-15.1876 69.2239 0.000258285 69.2239 15.1881 69.2238 27.5003 81.5359 27.5004 96.7237Z" fill="#EBE600" transform="matrix(0.707107 0.707107 0.707107 -0.707107 4115.75 2809.32)"/><path d="M4287.7 3125.06 4400.11 3237.47 4387.15 3250.44 4274.74 3138.02ZM4413.08 3224.51C4423.82 3235.25 4423.82 3252.66 4413.08 3263.4 4402.34 3274.14 4384.93 3274.14 4374.19 3263.4 4363.45 3252.66 4363.45 3235.25 4374.19 3224.51 4384.93 3213.77 4402.34 3213.77 4413.08 3224.51Z" fill="#EBE600"/><path d="M4154.9 3257.86 4223.54 3326.5 4210.58 3339.46 4141.94 3270.82ZM4236.51 3313.54C4247.25 3324.28 4247.25 3341.69 4236.51 3352.43 4225.77 3363.17 4208.35 3363.17 4197.62 3352.43 4186.88 3341.69 4186.88 3324.28 4197.62 3313.54 4208.35 3302.8 4225.77 3302.8 4236.51 3313.54Z" fill="#EBE600"/><path d="M3842.9 3119.83 3774.5 3188.22 3761.54 3175.26 3829.93 3106.86ZM3787.47 3201.18C3776.73 3211.92 3759.32 3211.92 3748.58 3201.18 3737.84 3190.45 3737.84 3173.03 3748.58 3162.29 3759.32 3151.55 3776.73 3151.55 3787.47 3162.29 3798.21 3173.03 3798.21 3190.45 3787.47 3201.18Z" fill="#EBE600"/><path d="M3888.01 3164.94 3769.96 3282.99 3757 3270.02 3875.05 3151.98ZM3782.93 3295.95C3772.19 3306.69 3754.78 3306.69 3744.04 3295.95 3733.3 3285.21 3733.3 3267.8 3744.04 3257.06 3754.78 3246.32 3772.19 3246.32 3782.93 3257.06 3793.67 3267.8 3793.67 3285.21 3782.93 3295.95Z" fill="#EBE600"/><path d="M4067.92 2761.48 4359.6 3053.16 4067.92 3344.84 3776.23 3053.16Z" stroke="#262626" stroke-width="13.75" stroke-miterlimit="8" fill="#404040" fill-rule="evenodd"/><path d="M4121.5 2995.5 4267.5 2995.5 4121.5 3048.5Z" stroke="#239DD3" stroke-width="4.58333" stroke-miterlimit="8" fill="#239DD3" fill-rule="evenodd"/><rect x="3993.5" y="3085.5" width="85.0002" height="44" stroke="#239DD3" stroke-width="4.58333" stroke-miterlimit="8" fill="#239DD3"/><path d="M0 44 53.6768 0 134.323 0 188 44Z" stroke="#239DD3" stroke-width="4.58333" stroke-miterlimit="8" fill="#239DD3" fill-rule="evenodd" transform="matrix(1 0 0 -1 3942.5 3085.5)"/><path d="M0 52.9999 56.6517 0 113.349 0 170 52.9999Z" stroke="#239DD3" stroke-width="4.58333" stroke-miterlimit="8" fill="#239DD3" fill-rule="evenodd" transform="matrix(1 0 0 -1 3866.5 3048.5)"/><rect x="3951.5" y="2989.5" width="170" height="58.9998" stroke="#239DD3" stroke-width="4.58333" stroke-miterlimit="8" fill="#239DD3"/><path d="M3951.5 3173.5 3994.86 3129.5 4078.14 3129.5 4121.5 3173.5Z" stroke="#239DD3" stroke-width="4.58333" stroke-miterlimit="8" fill="#239DD3" fill-rule="evenodd"/></g></svg>